HIERARCHY
ROOT Hips
{
	OFFSET 0.000000 83.214638 0.000000
	CHANNELS 6 Xposition Yposition Zposition Xrotation Yrotation Zrotation
	JOINT Pelvis
	{
		OFFSET 0.000000 0.000000 0.000000
		CHANNELS 3 Xrotation Yrotation Zrotation
		JOINT LeftUpLeg
		{
			OFFSET 8.479700 -4.795502 -0.379100
			CHANNELS 3 Xrotation Yrotation Zrotation
			JOINT LeftLeg
			{
				OFFSET 0.024144 -32.555107 0.112900
				CHANNELS 3 Xrotation Yrotation Zrotation
				JOINT LeftFoot
				{
					OFFSET -0.024144 -32.638630 -3.012600
					CHANNELS 3 Xrotation Yrotation Zrotation
					JOINT LeftToeBase
					{
						OFFSET 0.970200 -13.225400 11.864200
						CHANNELS 3 Xrotation Yrotation Zrotation
						End Site
						{
							OFFSET 0.000000 12.319262 0.000000
						}
					}
					JOINT LFootTongue
					{
						OFFSET 1.142400 -1.059800 6.665200
						CHANNELS 3 Xrotation Yrotation Zrotation
						End Site
						{
							OFFSET 0.000000 12.319262 0.000000
						}
					}
				}
				JOINT LeftPantLeg
				{
					OFFSET 0.918482 -16.533964 -2.284700
					CHANNELS 3 Xrotation Yrotation Zrotation
					End Site
					{
						OFFSET 0.350399 24.744368 0.000000
					}
				}
			}
		}
		JOINT RightUpLeg
		{
			OFFSET -8.479700 -4.795502 -0.379100
			CHANNELS 3 Xrotation Yrotation Zrotation
			JOINT RightLeg
			{
				OFFSET -0.023144 -32.555092 0.112900
				CHANNELS 3 Xrotation Yrotation Zrotation
				JOINT RightFoot
				{
					OFFSET 0.023144 -32.638641 -3.012700
					CHANNELS 3 Xrotation Yrotation Zrotation
					JOINT RightToeBase
					{
						OFFSET -0.970200 -13.225400 11.864200
						CHANNELS 3 Xrotation Yrotation Zrotation
						End Site
						{
							OFFSET 0.000000 12.319244 0.000000
						}
					}
					JOINT RFootTongue
					{
						OFFSET -1.142200 -1.059800 6.665200
						CHANNELS 3 Xrotation Yrotation Zrotation
						End Site
						{
							OFFSET 0.000000 12.319243 0.000000
						}
					}
				}
				JOINT RightPantLeg
				{
					OFFSET -0.919482 -16.533978 -2.284800
					CHANNELS 3 Xrotation Yrotation Zrotation
					End Site
					{
						OFFSET -0.350400 24.744419 0.000000
					}
				}
			}
		}
	}
	JOINT Spine
	{
		OFFSET 0.000000 7.722000 1.166200
		CHANNELS 3 Xrotation Yrotation Zrotation
		JOINT Spine1
		{
			OFFSET 0.000000 12.024101 0.248800
			CHANNELS 3 Xrotation Yrotation Zrotation
			JOINT Spine2
			{
				OFFSET 0.000000 11.502998 -0.491200
				CHANNELS 3 Xrotation Yrotation Zrotation
				JOINT Neck
				{
					OFFSET 0.000000 18.430702 -3.123100
					CHANNELS 3 Xrotation Yrotation Zrotation
					JOINT Head
					{
						OFFSET 0.000000 9.051102 1.034000
						CHANNELS 3 Xrotation Yrotation Zrotation
						JOINT HairB
						{
							OFFSET 0.208400 24.786102 24.822300
							CHANNELS 3 Xrotation Yrotation Zrotation
							End Site
							{
								OFFSET 0.000000 32.263779 0.000000
							}
						}
						JOINT HairA
						{
							OFFSET -7.081100 24.428299 23.196600
							CHANNELS 3 Xrotation Yrotation Zrotation
							End Site
							{
								OFFSET 0.000000 32.263779 0.000000
							}
						}
						JOINT Hat
						{
							OFFSET 16.728800 15.048294 -15.439601
							CHANNELS 3 Xrotation Yrotation Zrotation
							End Site
							{
								OFFSET 0.000000 32.263779 0.000000
							}
						}
					}
				}
				JOINT LeftShoulder
				{
					OFFSET 6.197800 13.665199 -4.064700
					CHANNELS 3 Xrotation Yrotation Zrotation
					JOINT LeftArm
					{
						OFFSET 7.778100 -0.187103 -1.709300
						CHANNELS 3 Xrotation Yrotation Zrotation
						JOINT LeftForeArm
						{
							OFFSET 22.049376 0.000000 0.000000
							CHANNELS 3 Xrotation Yrotation Zrotation
							JOINT LeftHand
							{
								OFFSET 23.009392 0.000000 0.000000
								CHANNELS 3 Xrotation Yrotation Zrotation
								JOINT LeftHandThumb1
								{
									OFFSET 3.507191 -2.063065 3.133727
									CHANNELS 3 Xrotation Yrotation Zrotation
									JOINT LeftHandThumb2
									{
										OFFSET 3.101337 -1.790558 1.790558
										CHANNELS 3 Xrotation Yrotation Zrotation
										JOINT LeftHandThumb3
										{
											OFFSET 3.058640 -1.765907 1.765906
											CHANNELS 3 Xrotation Yrotation Zrotation
											End Site
											{
												OFFSET -0.415260 3.926476 -0.049563
											}
										}
									}
								}
								JOINT LeftHandIndex1
								{
									OFFSET 11.334419 -0.901459 3.706815
									CHANNELS 3 Xrotation Yrotation Zrotation
									JOINT LeftHandIndex2
									{
										OFFSET 3.283112 0.000000 0.000000
										CHANNELS 3 Xrotation Yrotation Zrotation
										JOINT LeftHandIndex3
										{
											OFFSET 3.323853 0.000000 0.000000
											CHANNELS 3 Xrotation Yrotation Zrotation
											End Site
											{
												OFFSET -1.135597 3.097809 0.402452
											}
										}
									}
								}
								JOINT LeftHandMiddle1
								{
									OFFSET 11.335861 0.000000 0.000000
									CHANNELS 3 Xrotation Yrotation Zrotation
									JOINT LeftHandMiddle2
									{
										OFFSET 3.410492 0.000000 0.000000
										CHANNELS 3 Xrotation Yrotation Zrotation
										JOINT LeftHandMiddle3
										{
											OFFSET 3.312172 0.000000 0.000000
											CHANNELS 3 Xrotation Yrotation Zrotation
											End Site
											{
												OFFSET -1.150200 3.080154 0.400270
											}
										}
									}
								}
								JOINT LeftHandRing1
								{
									OFFSET 11.514786 -0.013176 -3.003090
									CHANNELS 3 Xrotation Yrotation Zrotation
									JOINT LeftHandRing2
									{
										OFFSET 3.053307 0.000000 0.000000
										CHANNELS 3 Xrotation Yrotation Zrotation
										JOINT LeftHandRing3
										{
											OFFSET 3.295807 0.000000 0.000000
											CHANNELS 3 Xrotation Yrotation Zrotation
											End Site
											{
												OFFSET -1.281006 3.013344 0.375733
											}
										}
									}
								}
								JOINT LeftHandPinky1
								{
									OFFSET 10.518692 -0.960396 -5.730441
									CHANNELS 3 Xrotation Yrotation Zrotation
									JOINT LeftHandPinky2
									{
										OFFSET 2.861649 0.000000 0.000000
										CHANNELS 3 Xrotation Yrotation Zrotation
										JOINT LeftHandPinky3
										{
											OFFSET 2.863380 0.000000 0.000000
											CHANNELS 3 Xrotation Yrotation Zrotation
											End Site
											{
												OFFSET -0.843597 2.711159 0.369971
											}
										}
									}
								}
							}
							JOINT LSleeve
							{
								OFFSET 6.676277 -0.344902 -1.011730
								CHANNELS 3 Xrotation Yrotation Zrotation
								End Site
								{
									OFFSET 0.000000 14.885353 0.000000
								}
							}
						}
					}
				}
				JOINT RightShoulder
				{
					OFFSET -6.197800 13.665199 -4.064700
					CHANNELS 3 Xrotation Yrotation Zrotation
					JOINT RightArm
					{
						OFFSET -7.778100 -0.187103 -1.709300
						CHANNELS 3 Xrotation Yrotation Zrotation
						JOINT RightForeArm
						{
							OFFSET -22.049376 0.000000 0.000000
							CHANNELS 3 Xrotation Yrotation Zrotation
							JOINT RightHand
							{
								OFFSET -23.009392 0.000000 0.000000
								CHANNELS 3 Xrotation Yrotation Zrotation
								JOINT RightHandThumb1
								{
									OFFSET -3.507191 -2.063065 3.133727
									CHANNELS 3 Xrotation Yrotation Zrotation
									JOINT RightHandThumb2
									{
										OFFSET -3.101337 -1.790558 1.790558
										CHANNELS 3 Xrotation Yrotation Zrotation
										JOINT RightHandThumb3
										{
											OFFSET -3.058640 -1.765907 1.765906
											CHANNELS 3 Xrotation Yrotation Zrotation
											End Site
											{
												OFFSET 0.415260 3.926476 -0.049563
											}
										}
									}
								}
								JOINT RightHandIndex1
								{
									OFFSET -11.334419 -0.901459 3.706815
									CHANNELS 3 Xrotation Yrotation Zrotation
									JOINT RightHandIndex2
									{
										OFFSET -3.283112 0.000000 0.000000
										CHANNELS 3 Xrotation Yrotation Zrotation
										JOINT RightHandIndex3
										{
											OFFSET -3.323853 0.000000 0.000000
											CHANNELS 3 Xrotation Yrotation Zrotation
											End Site
											{
												OFFSET 1.135597 3.097809 0.402452
											}
										}
									}
								}
								JOINT RightHandMiddle1
								{
									OFFSET -11.335861 0.000000 0.000000
									CHANNELS 3 Xrotation Yrotation Zrotation
									JOINT RightHandMiddle2
									{
										OFFSET -3.410492 0.000000 0.000000
										CHANNELS 3 Xrotation Yrotation Zrotation
										JOINT RightHandMiddle3
										{
											OFFSET -3.312172 0.000000 0.000000
											CHANNELS 3 Xrotation Yrotation Zrotation
											End Site
											{
												OFFSET 1.150200 3.080154 0.400270
											}
										}
									}
								}
								JOINT RightHandRing1
								{
									OFFSET -11.514786 -0.013176 -3.003090
									CHANNELS 3 Xrotation Yrotation Zrotation
									JOINT RightHandRing2
									{
										OFFSET -3.053307 0.000000 0.000000
										CHANNELS 3 Xrotation Yrotation Zrotation
										JOINT RightHandRing3
										{
											OFFSET -3.295807 0.000000 0.000000
											CHANNELS 3 Xrotation Yrotation Zrotation
											End Site
											{
												OFFSET 1.281006 3.013344 0.375733
											}
										}
									}
								}
								JOINT RightHandPinky1
								{
									OFFSET -10.518692 -0.960396 -5.730441
									CHANNELS 3 Xrotation Yrotation Zrotation
									JOINT RightHandPinky2
									{
										OFFSET -2.861649 0.000000 0.000000
										CHANNELS 3 Xrotation Yrotation Zrotation
										JOINT RightHandPinky3
										{
											OFFSET -2.863380 0.000000 0.000000
											CHANNELS 3 Xrotation Yrotation Zrotation
											End Site
											{
												OFFSET 0.843597 2.711159 0.369971
											}
										}
									}
								}
							}
							JOINT RSleeve
							{
								OFFSET -6.676277 -0.344902 -1.011730
								CHANNELS 3 Xrotation Yrotation Zrotation
								End Site
								{
									OFFSET 0.000000 14.885353 0.000000
								}
							}
						}
					}
				}
				JOINT Backpack
				{
					OFFSET 0.000000 -2.471497 36.677502
					CHANNELS 3 Xrotation Yrotation Zrotation
					End Site
					{
						OFFSET 0.000000 20.427315 0.000000
					}
				}
				JOINT Hood
				{
					OFFSET 0.000000 18.754097 -10.431000
					CHANNELS 3 Xrotation Yrotation Zrotation
					JOINT Hood1
					{
						OFFSET 0.000000 -5.011002 -7.685901
						CHANNELS 3 Xrotation Yrotation Zrotation
						End Site
						{
							OFFSET 0.000000 9.175140 0.000000
						}
					}
				}
				JOINT LHoodieString
				{
					OFFSET 5.250500 16.397697 3.089900
					CHANNELS 3 Xrotation Yrotation Zrotation
					JOINT LHoodieString1
					{
						OFFSET 0.257700 -6.364304 3.694600
						CHANNELS 3 Xrotation Yrotation Zrotation
						JOINT LHoodieString2
						{
							OFFSET 0.000000 -9.643799 2.679100
							CHANNELS 3 Xrotation Yrotation Zrotation
							End Site
							{
								OFFSET 0.000000 10.009018 0.000000
							}
						}
					}
				}
				JOINT RHoodieString
				{
					OFFSET -5.250500 16.397697 3.089900
					CHANNELS 3 Xrotation Yrotation Zrotation
					JOINT RHoodieString1
					{
						OFFSET -0.257700 -6.364304 3.694600
						CHANNELS 3 Xrotation Yrotation Zrotation
						JOINT RHoodieString2
						{
							OFFSET 0.000000 -9.643799 2.679100
							CHANNELS 3 Xrotation Yrotation Zrotation
							End Site
							{
								OFFSET 0.000000 10.009018 0.000000
							}
						}
					}
				}
			}
			JOINT LBackpack_Strap
			{
				OFFSET 15.223200 -7.719803 -6.610900
				CHANNELS 3 Xrotation Yrotation Zrotation
				End Site
				{
					OFFSET 0.000000 16.040596 0.000000
				}
			}
			JOINT RBackpack_Strap
			{
				OFFSET -15.223000 -7.719803 -6.610900
				CHANNELS 3 Xrotation Yrotation Zrotation
				End Site
				{
					OFFSET 0.000000 16.040596 0.000000
				}
			}
		}
	}
	JOINT BoyFacialAnim_Joint
	{
		OFFSET 1.000000 -82.208099 -1.550900
		CHANNELS 3 Xrotation Yrotation Zrotation
		End Site
		{
			OFFSET 0.000000 30.012791 0.000000
		}
	}
}
MOTION
Frames: 4
Frame Time: 0.033333
-1.439463 71.937660 4.621980 7.452115 13.286776 -2.136556 -0.000000 0.000000 0.000000 -31.134140 -9.958803 12.012390 51.259211 3.949150 10.023672 -25.356176 4.679209 -21.180133 -0.000000 0.000001 -0.000000 -0.000000 0.000001 0.000000 0.000003 -0.000001 0.000000 -22.530801 -3.906201 -13.814682 53.831432 -7.878541 -2.484085 -33.587131 -9.354418 12.716621 0.000000 -0.000000 0.000000 0.000000 -0.000000 0.000000 -0.000001 0.000001 0.000001 -6.143535 -3.774455 0.357975 -10.162457 -6.218988 4.913922 -10.195155 -5.797777 5.332317 -3.478134 1.010297 -2.617131 9.121719 0.926369 -4.117199 -0.000001 0.000000 0.000001 -0.000001 0.000000 0.000001 -0.000001 0.000000 0.000001 -0.813014 7.449098 1.192614 -22.641201 -32.319898 -12.274273 -0.000011 -122.308088 0.000004 19.344554 -46.145380 10.649980 -1.517627 3.690187 6.142351 3.939043 7.948698 0.746815 0.000001 0.000001 -0.000000 0.000000 -0.000004 -0.000001 -0.000004 -0.000012 0.000003 -0.000002 -0.000001 -0.000002 0.000009 -0.001924 0.015980 0.000007 0.001927 -0.015983 0.000001 -0.000004 0.000003 -0.000007 -0.000013 0.000001 -0.000010 -0.000009 -0.000046 -0.000001 -0.000003 -0.000001 -0.018083 4.054256 0.511067 -0.018080 -4.054250 -0.511058 -0.000000 0.000001 -0.000002 0.000002 -0.000002 0.000001 0.503730 -11.868284 9.041734 -14.369220 -10.646002 47.304070 0.000036 132.130119 -0.000043 -20.032706 12.906886 7.911996 -1.849259 -3.581792 -6.586127 4.637202 -8.634128 -0.225424 -0.000002 0.000000 0.000001 -0.000000 -0.000003 -0.000000 0.000001 -0.000001 -0.000000 -0.000001 0.000002 0.000002 0.000002 -0.000003 -0.000003 0.000001 -0.000003 0.000031 -0.000000 0.000000 -0.000000 -0.000001 0.000000 0.000006 -0.000001 0.000002 -0.000006 0.000001 0.000000 0.000002 -0.000001 -0.000003 -0.000005 -0.000002 -0.000003 0.000008 0.000001 0.000000 0.000000 -0.000000 -0.000002 0.000000 -0.000001 0.000000 -0.000000 -0.000001 0.000000 -0.000000 -0.000001 0.000000 -0.000000 -0.000001 0.000000 -0.000000 -0.000001 0.000000 -0.000000 -0.000001 -0.000000 -0.000001 -0.000001 0.000000 -0.000000 -0.000001 0.000000 -0.000000 -0.000001 -0.000000 -0.000001 -0.000001 0.000000 0.000000 -0.000001 0.000000 0.000000 -0.000000 0.000000 0.000000 
-2.239384 71.756874 3.875063 5.224396 11.825721 -2.121931 -0.000000 -0.000001 0.000000 -29.956561 -9.043162 13.659420 52.473048 3.444271 10.213872 -24.965839 4.491327 -20.692823 0.000000 -0.000001 -0.000000 0.000000 -0.000001 0.000000 -0.000001 -0.000001 -0.000001 -21.878643 -2.706320 -12.216706 55.291621 -7.989613 -2.731128 -33.805745 -9.113405 12.473241 0.000000 -0.000000 -0.000000 0.000000 -0.000000 -0.000000 0.000003 0.000001 0.000001 -4.627583 -3.053090 0.399687 -7.463491 -4.943396 4.810771 -7.481612 -4.621404 5.092904 -2.497574 0.868477 -2.182024 6.702860 1.193003 -3.107002 0.000000 0.000000 -0.000000 0.000000 0.000000 -0.000000 0.000000 0.000000 -0.000000 -0.767229 7.456612 0.149618 -33.010274 -29.511755 -19.251238 0.000060 -120.747977 0.000043 3.380014 -40.594212 -6.966590 -1.518794 3.690179 6.142358 3.939040 7.948697 0.746819 -0.000001 -0.000000 0.000000 -0.000004 -0.000005 0.000000 -0.000002 -0.000009 0.000000 -0.000001 -0.000001 -0.000002 0.000000 -0.001938 0.015984 0.000001 0.001928 -0.015985 0.000004 0.000000 -0.000001 -0.000000 -0.000002 0.000001 -0.000011 -0.000006 -0.000042 0.000002 -0.000000 0.000001 -0.018087 4.054250 0.511078 -0.018085 -4.054250 -0.511058 -0.000001 -0.000001 -0.000000 0.000000 -0.000000 0.000000 0.707868 -13.109672 10.501543 -13.502533 3.814631 49.028433 0.000021 126.132994 -0.000032 -12.075903 13.637636 2.450501 -1.849254 -3.581792 -6.586127 4.637198 -8.634132 -0.225421 0.000001 0.000002 0.000001 0.000002 -0.000003 -0.000004 -0.000001 -0.000001 0.000002 -0.000002 0.000000 0.000000 0.000003 -0.000005 0.000009 0.000003 -0.000003 0.000031 0.000004 -0.000001 -0.000002 0.000003 -0.000004 -0.000000 -0.000003 0.000001 -0.000001 0.000001 0.000000 0.000002 -0.000001 -0.000004 -0.000003 -0.000001 -0.000004 0.000010 -0.000001 0.000001 -0.000001 0.000002 -0.000001 0.000001 -0.000000 0.000000 0.000001 -0.000000 0.000000 0.000001 -0.000000 0.000000 0.000001 -0.000000 0.000000 0.000001 -0.000000 0.000000 0.000000 -0.000001 0.000000 -0.000000 -0.000000 0.000000 0.000001 -0.000000 0.000000 0.000000 -0.000001 0.000000 -0.000000 0.000000 -0.000000 0.000000 0.000000 -0.000000 0.000000 -0.000000 -0.000001 0.000000 
-2.998142 71.831604 2.633265 0.061517 10.522325 -2.094758 0.000000 -0.000000 0.000000 -27.616989 -8.902808 16.195432 55.084420 0.138384 10.259556 -19.437451 4.385868 -22.852247 0.000000 -0.000000 -0.000000 0.000000 -0.000000 0.000000 -0.000003 0.000001 0.000001 -18.323680 -1.761275 -10.125206 56.026467 -8.270283 -2.904253 -33.277703 -8.804658 11.813909 0.000000 -0.000001 -0.000000 0.000000 -0.000001 -0.000000 -0.000000 0.000000 -0.000000 -1.917136 -1.961513 0.228429 -2.610048 -3.064527 4.483753 -2.621286 -2.877664 4.599454 -1.091118 0.432326 -1.700210 4.387965 -0.181548 -1.049041 -0.000000 0.000000 -0.000000 -0.000000 0.000000 -0.000000 -0.000000 0.000000 -0.000000 -0.666578 6.878532 0.356405 -40.594741 -35.690208 -28.005963 0.000046 -106.281746 0.000046 10.537830 -32.552719 -4.706239 -1.520156 3.690187 6.142358 3.939048 7.948694 0.746816 -0.000004 -0.000001 -0.000002 -0.000003 0.000002 0.000004 -0.000004 -0.000008 0.000000 0.000003 0.000000 -0.000002 -0.000022 -0.001932 0.015984 0.000007 0.001926 -0.015980 0.000000 0.000001 -0.000001 -0.000008 0.000000 0.000001 -0.000009 -0.000011 -0.000042 0.000002 0.000000 0.000001 -0.018098 4.054256 0.511072 -0.018081 -4.054250 -0.511060 0.000000 0.000001 -0.000000 -0.000001 -0.000003 0.000001 0.595416 -12.635672 9.725236 -23.596193 16.901069 49.561014 0.000046 112.725866 -0.000038 -14.439064 18.155650 8.046190 -1.849257 -3.581793 -6.586129 4.637202 -8.634126 -0.225422 -0.000000 -0.000002 -0.000000 0.000000 0.000000 -0.000002 0.000001 -0.000002 0.000001 -0.000000 -0.000001 0.000005 0.000001 0.000002 0.000007 0.000001 -0.000007 0.000031 -0.000000 -0.000000 0.000001 -0.000000 0.000004 0.000001 -0.000006 -0.000001 -0.000005 0.000000 -0.000001 0.000002 -0.000001 0.000000 -0.000006 -0.000004 -0.000004 0.000012 -0.000000 -0.000002 -0.000000 -0.000001 -0.000005 0.000002 -0.000000 0.000000 0.000001 -0.000000 0.000000 0.000001 -0.000000 0.000000 0.000001 -0.000000 0.000000 0.000001 -0.000000 0.000000 0.000001 -0.000000 -0.000000 0.000001 -0.000000 0.000000 0.000001 -0.000000 0.000000 0.000001 -0.000000 -0.000000 0.000001 -0.000000 -0.000000 0.000000 -0.000000 -0.000000 0.000000 0.000000 -0.000000 0.000000 
-3.792706 72.154831 1.167545 -6.499781 10.438783 -1.255343 -0.000001 -0.000001 -0.000000 -25.289581 -9.141371 17.390172 57.702053 -4.105683 10.302217 -10.566802 3.600536 -23.629115 -0.000001 -0.000001 0.000000 -0.000001 -0.000001 0.000000 0.000001 0.000001 -0.000000 -12.972123 -1.565344 -8.675449 56.005820 -8.338317 -3.323476 -32.351727 -9.137752 10.890597 0.000000 0.000000 0.000000 0.000000 0.000000 0.000000 -0.000002 -0.000000 -0.000002 1.388203 -0.989709 -0.167741 3.300320 -1.427819 3.385730 3.292576 -1.429410 3.393563 0.221233 -0.093854 -1.306664 2.349405 -2.453507 1.032343 -0.000000 -0.000000 0.000000 -0.000000 -0.000000 0.000000 -0.000000 -0.000000 0.000000 -0.489647 5.525790 1.846037 -49.787154 -45.360003 -37.362801 0.000121 -83.434456 0.000138 21.691163 -30.427943 8.706502 -1.521702 3.690195 6.142355 3.939047 7.948697 0.746817 0.000001 0.000001 -0.000002 0.000003 0.000001 0.000001 -0.000009 -0.000011 -0.000000 0.000000 0.000001 -0.000002 0.000003 -0.001921 0.015986 0.000006 0.001930 -0.015981 0.000002 -0.000002 -0.000000 0.000006 0.000001 -0.000002 -0.000007 -0.000007 -0.000044 0.000003 0.000000 -0.000000 -0.018087 4.054261 0.511069 -0.018087 -4.054253 -0.511062 0.000003 -0.000000 0.000001 0.000000 0.000001 0.000001 0.164064 -9.886545 6.029317 -37.427343 25.624133 49.989028 0.008470 94.756300 -0.008381 -16.419059 24.186472 18.410271 -1.849257 -3.581790 -6.586129 4.637199 -8.634128 -0.225424 -0.000001 0.000001 0.000004 -0.000000 -0.000002 -0.000003 0.000001 0.000000 -0.000004 -0.000001 0.000001 0.000000 0.000004 0.000000 -0.000000 0.000000 -0.000003 0.000024 0.000001 -0.000000 0.000003 -0.000001 -0.000001 0.000009 -0.000001 -0.000001 -0.000002 -0.000000 -0.000001 0.000004 -0.000003 0.000001 -0.000004 -0.000002 -0.000002 0.000012 -0.000000 0.000002 -0.000007 0.000000 -0.000001 0.000002 -0.000000 0.000001 -0.000000 -0.000000 0.000001 -0.000000 -0.000000 0.000001 -0.000000 -0.000000 0.000001 -0.000000 -0.000000 0.000001 -0.000000 -0.000000 0.000001 -0.000000 -0.000000 0.000001 -0.000000 -0.000000 0.000001 -0.000000 -0.000000 0.000001 -0.000000 0.000000 -0.000000 -0.000000 0.000000 -0.000000 -0.000000 -0.000001 -0.000001 -0.000000 
